<?xml version="1.0" encoding="UTF-8" standalone="no"?>
<!DOCTYPE svg PUBLIC "-//W3C//DTD SVG 1.1//EN" "http://www.w3.org/Graphics/SVG/1.1/DTD/svg11.dtd">
<svg width="100%" height="100%" viewBox="0 0 62 92" version="1.1" xmlns="http://www.w3.org/2000/svg" xmlns:xlink="http://www.w3.org/1999/xlink" xml:space="preserve" xmlns:serif="http://www.serif.com/" style="fill-rule:evenodd;clip-rule:evenodd;stroke-linejoin:round;stroke-miterlimit:2;">
    <g transform="matrix(1,0,0,1,-669.289991,-452.928939)">
        <g transform="matrix(0.017127,0,0,0.017127,700.118049,498.586021)">
            <g transform="matrix(1,0,0,1,-1800,-2666.666667)">
                <g transform="matrix(0.416667,0,0,-0.416667,0,5333.333333)">
                    <path d="M3515,12793C2945,12771 2800,12762 2535,12734C2011,12679 1484,12567 905,12389C797,12355 342,12207 304,12193C297,12190 288,12227 280,12301L267,12412L156,12405C60,12399 42,12395 22,12376L0,12354L45,11980C101,11520 327,9661 375,9270C394,9113 428,8839 450,8660C472,8481 530,8000 580,7590C630,7180 688,6699 710,6520C732,6341 766,6067 785,5910C804,5753 863,5272 915,4840C968,4408 1028,3909 1050,3730C1072,3551 1106,3277 1125,3120C1144,2963 1205,2464 1260,2010C1464,331 1499,47 1502,45C1504,44 1519,34 1536,22L1567,1L1675,19C1790,39 1819,56 1820,108C1820,120 1649,1498 1440,3170C1231,4842 1060,6218 1060,6229C1060,6251 1071,6255 1350,6339C2001,6535 2526,6647 2950,6679C3409,6715 4914,6726 5365,6697C5723,6674 5799,6661 5921,6600C6061,6529 6051,6466 5881,6347C5732,6242 5640,6111 5640,6002C5640,5927 5658,5893 5734,5823C5816,5748 5941,5684 6090,5640C6251,5593 6711,5484 6845,5460C7090,5417 7227,5370 7326,5294C7431,5214 7464,5155 7458,5060C7452,4981 7416,4906 7338,4809C7258,4710 7246,4674 7245,4543C7245,4470 7249,4427 7257,4419C7279,4397 7323,4421 7395,4493C7499,4599 7567,4744 7605,4942C7622,5030 7624,5064 7641,5445C7659,5867 7686,6070 7750,6275C7798,6429 7816,6526 7825,6675C7841,6952 7857,7013 7974,7260C8025,7367 8095,7525 8130,7610C8166,7695 8264,7905 8350,8075C8435,8246 8523,8432 8544,8490C8773,9120 8584,9575 7943,9929C7892,9957 7778,10013 7690,10054C7429,10175 7304,10271 7245,10396C7175,10543 7213,10672 7385,10880C7466,10979 7477,10996 7490,11054C7531,11239 7306,11580 6960,11859C6908,11901 6780,11997 6675,12071C6191,12418 6038,12495 5626,12600C5305,12682 4717,12766 4295,12790C4143,12799 3701,12801 3515,12793Z"/>
                </g>
            </g>
        </g>
    </g>
</svg>
